<?xml version="1.0" standalone="no"?>
<!DOCTYPE svg PUBLIC "-//W3C//DTD SVG 20010904//EN"
 "http://www.w3.org/TR/2001/REC-SVG-20010904/DTD/svg10.dtd">
<svg version="1.0" xmlns="http://www.w3.org/2000/svg"
 width="202.000000pt" height="39.000000pt" viewBox="0 0 202.000000 39.000000"
 preserveAspectRatio="xMidYMid meet">

<g transform="translate(0.000000,39.000000) scale(0.100000,-0.100000)"
fill="#000000" stroke="none">
<path d="M126 375 c-22 -7 -48 -23 -60 -34 l-20 -21 111 0 c150 0 188 -19 164
-83 -14 -35 -58 -64 -140 -89 -51 -17 -73 -29 -80 -46 -14 -29 -14 -28 2 -30
104 -14 133 -13 177 10 61 31 90 77 90 141 0 67 -27 109 -92 141 -58 29 -95
32 -152 11z"/>
<path d="M448 210 c-63 -89 -74 -110 -58 -110 11 0 25 9 32 20 11 18 24 20
108 20 84 0 97 -2 108 -20 7 -11 21 -20 33 -20 17 0 9 16 -54 107 -41 59 -78
108 -83 110 -5 1 -44 -47 -86 -107z m119 12 l33 -47 -61 -3 c-34 -2 -64 -1
-66 2 -6 5 49 96 57 96 3 -1 20 -22 37 -48z"/>
<path d="M740 303 c-8 -3 -18 -11 -22 -17 -13 -18 -9 -161 4 -174 8 -8 52 -12
133 -12 125 0 145 6 145 42 0 22 -26 24 -34 3 -5 -13 -24 -15 -113 -13 l-108
3 0 70 0 70 108 3 c89 2 108 0 113 -13 6 -15 44 -22 44 -7 0 5 -6 17 -14 28
-13 17 -28 19 -128 21 -62 1 -120 0 -128 -4z"/>
<path d="M1040 205 c0 -85 3 -105 14 -105 10 0 16 14 18 43 l3 42 53 3 c49 3
56 0 112 -43 39 -30 68 -45 83 -43 19 3 13 10 -40 51 -35 27 -63 50 -63 52 0
2 30 26 67 52 57 41 64 49 45 51 -15 2 -44 -13 -84 -42 -57 -42 -66 -46 -120
-46 l-58 0 0 45 c0 33 -4 45 -15 45 -12 0 -15 -18 -15 -105z"/>
<path d="M1377 303 c-4 -3 -7 -51 -7 -105 l0 -98 150 0 c127 0 150 2 150 15 0
13 -21 15 -130 15 l-130 0 0 30 0 30 115 0 c96 0 115 3 115 15 0 12 -19 15
-115 15 l-115 0 0 30 0 30 130 0 c109 0 130 2 130 15 0 13 -23 15 -143 15 -79
0 -147 -3 -150 -7z"/>
<path d="M1720 290 c0 -6 28 -10 65 -10 l65 0 0 -90 c0 -73 3 -90 15 -90 12 0
15 17 15 90 l0 90 65 0 c37 0 65 4 65 10 0 6 -55 10 -145 10 -90 0 -145 -4
-145 -10z"/>
<path d="M17 263 c-11 -10 -7 -65 6 -97 l13 -29 26 62 c25 58 28 61 62 61 41
0 42 -3 21 -54 -17 -41 -17 -41 30 -22 36 15 71 59 60 76 -7 11 -207 14 -218
3z"/>
<path d="M370 35 c0 -18 4 -23 16 -18 11 4 12 8 4 13 -7 4 -9 13 -6 19 4 6 2
11 -3 11 -6 0 -11 -11 -11 -25z"/>
<path d="M414 41 c0 -11 4 -17 8 -15 4 3 8 12 8 20 0 8 -4 14 -8 14 -4 0 -8
-9 -8 -19z"/>
<path d="M492 42 c2 -10 14 -18 28 -19 l25 -2 -25 8 c-25 9 -25 9 4 10 34 1
28 13 -10 17 -19 2 -24 -1 -22 -14z"/>
<path d="M610 46 c0 -22 29 -41 42 -28 9 9 6 12 -11 12 -16 0 -21 4 -17 15 3
8 1 15 -4 15 -6 0 -10 -6 -10 -14z"/>
<path d="M757 54 c-8 -8 3 -34 14 -34 5 0 9 9 9 20 0 19 -11 26 -23 14z"/>
<path d="M840 49 c0 -11 21 -11 39 0 9 6 5 9 -13 9 -14 0 -26 -4 -26 -9z"/>
<path d="M1033 48 c-8 -14 8 -28 30 -27 20 1 20 2 -3 9 l-25 8 28 1 c15 1 27
5 27 10 0 11 -50 9 -57 -1z"/>
<path d="M1230 49 c0 -11 21 -11 39 0 9 6 5 9 -13 9 -14 0 -26 -4 -26 -9z"/>
<path d="M1343 48 c-8 -14 8 -28 30 -27 20 1 20 2 -3 9 l-25 8 28 1 c15 1 27
5 27 10 0 11 -50 9 -57 -1z"/>
<path d="M1460 38 c0 -12 1 -19 3 -17 1 2 9 12 16 22 12 14 11 17 -3 17 -10 0
-16 -8 -16 -22z"/>
<path d="M1550 54 c0 -20 25 -35 38 -22 7 7 12 17 12 23 0 5 -5 2 -11 -8 -10
-18 -11 -18 -25 0 -7 10 -14 13 -14 7z"/>
<path d="M1662 40 c0 -14 2 -19 5 -12 2 6 2 18 0 25 -3 6 -5 1 -5 -13z"/>
<path d="M1734 48 c-9 -14 25 -40 40 -30 7 4 2 8 -11 10 -25 4 -30 17 -10 25
9 4 9 6 0 6 -6 1 -15 -4 -19 -11z"/>
<path d="M1844 49 c-10 -16 11 -31 37 -27 25 3 33 28 11 36 -7 2 -10 -2 -6
-12 4 -10 1 -16 -9 -16 -21 0 -31 17 -15 23 9 4 10 6 1 6 -6 1 -15 -4 -19 -10z"/>
<path d="M1970 50 c0 -5 5 -10 11 -10 5 0 7 5 4 10 -3 6 -8 10 -11 10 -2 0 -4
-4 -4 -10z"/>
<path d="M720 30 c0 -6 7 -10 15 -10 8 0 15 2 15 4 0 2 -7 6 -15 10 -8 3 -15
1 -15 -4z"/>
<path d="M860 30 l-25 -8 28 -1 c15 -1 27 4 27 9 0 6 -1 10 -2 9 -2 -1 -14 -5
-28 -9z"/>
<path d="M1250 30 l-25 -8 28 -1 c15 -1 27 4 27 9 0 6 -1 10 -2 9 -2 -1 -14
-5 -28 -9z"/>
<path d="M1985 30 c-19 -8 -19 -9 2 -9 12 -1 25 4 28 9 7 12 -2 12 -30 0z"/>
</g>
</svg>
